<svg xmlns="http://www.w3.org/2000/svg" viewBox="0 0 18.3398 17.9785">
  <path fill="#0A6CF0" d="M17.9785 3.02734L17.9785 14.9609C17.9785 16.9727 16.9629 17.9785 14.9121 17.9785L3.06641 17.9785C1.02539 17.9785 0 16.9727 0 14.9609L0 3.02734C0 1.01562 1.02539 0 3.06641 0L14.9121 0C16.9629 0 17.9785 1.01562 17.9785 3.02734Z"/>
  <path fill="#fff" d="M7.40234 7.17773C6.99219 7.17773 6.66992 7.5 6.66992 7.89062C6.66992 8.31055 6.99219 8.61328 7.40234 8.61328L8.47656 8.61328L8.47656 13.2031L7.23633 13.2031C6.81641 13.2031 6.49414 13.5254 6.49414 13.916C6.49414 14.3359 6.81641 14.6387 7.23633 14.6387L11.3281 14.6387C11.748 14.6387 12.0703 14.3359 12.0703 13.916C12.0703 13.5254 11.748 13.2031 11.3281 13.2031L10.0879 13.2031L10.0879 8.0957C10.0879 7.54883 9.81445 7.17773 9.29688 7.17773Z"/>
  <path fill="#fff" d="M7.58789 4.18945C7.58789 4.93164 8.17383 5.51758 8.90625 5.51758C9.63867 5.51758 10.2148 4.93164 10.2148 4.18945C10.2148 3.44727 9.63867 2.86133 8.90625 2.86133C8.17383 2.86133 7.58789 3.44727 7.58789 4.18945Z"/>
</svg>
